<svg width="512" height="512" viewBox="0 0 512 512" fill="none" xmlns="http://www.w3.org/2000/svg">
<path d="M60.2608 393.154L25.5216 92.381L252.478 11.5176L485.565 90.9505L447.772 391.675L252.451 499.847L60.2608 393.154Z" stroke="#FDFA85" stroke-width="8"/>
<path fill-rule="evenodd" clip-rule="evenodd" d="M108.709 385.95L252.815 65.3271L403.879 386.865L352.426 385.95L320.748 312.706H253.181H252.998H191.474L162.543 385.034L108.709 385.95ZM301.888 269.859L253.181 168.051L210.334 269.859H252.815H255.195H301.888Z" fill="#FDFA85"/>
<path fill-rule="evenodd" clip-rule="evenodd" d="M252.735 55.749L410.232 390.979L349.778 389.903L318.12 316.706H194.182L165.269 388.988L102.478 390.056L252.735 55.749ZM252.896 74.9052L114.94 381.843L159.816 381.08L188.766 308.706H323.376L355.074 381.996L397.527 382.752L252.896 74.9052ZM252.948 158.294L308.236 273.859H204.311L252.948 158.294ZM253.415 177.808L216.357 265.859H295.54L253.415 177.808Z" fill="#FDFA85"/>
</svg>
