<svg width="23" height="23" viewBox="0 0 23 23" fill="none" xmlns="http://www.w3.org/2000/svg">
<g clip-path="url(#clip0_40_576)">
<path fill-rule="evenodd" clip-rule="evenodd" d="M12.9559 10.1556C12.6968 10.2281 12.434 10.3016 12.1299 10.3843C11.9813 10.4263 11.9475 10.4359 11.8092 10.2678C11.6434 10.0698 11.5218 9.94166 11.2896 9.82518C10.593 9.46411 9.9185 9.56893 9.28825 9.9999C8.53638 10.5124 8.14938 11.2695 8.16044 12.2129C8.1715 13.1448 8.77963 13.9135 9.65313 14.0416C10.405 14.1464 11.0353 13.8669 11.5328 13.2729C11.6323 13.1448 11.7209 13.0049 11.8314 12.8419H9.69736C9.46517 12.8419 9.40988 12.6905 9.48728 12.4925C9.63102 12.1314 9.89639 11.5257 10.0512 11.2229C10.0844 11.153 10.1618 11.0365 10.3276 11.0365H13.8858C14.0456 10.503 14.3049 9.99893 14.6509 9.52195C15.458 8.40378 16.4311 7.8214 17.7468 7.5768C18.8747 7.36714 19.9361 7.48362 20.8981 8.17083C21.7716 8.7998 22.3134 9.65008 22.4571 10.7682C22.6451 12.3407 22.2139 13.6219 21.1856 14.7168C20.4558 15.4972 19.5602 15.9864 18.5319 16.2077C18.3357 16.2459 18.1396 16.2641 17.9466 16.282C17.8458 16.2913 17.7459 16.3005 17.6473 16.3125C16.6411 16.2892 15.7234 15.9864 14.9494 15.2875C14.4051 14.7919 14.0302 14.1828 13.8438 13.4736C13.7145 13.7488 13.5599 14.0123 13.3793 14.2629C12.5832 15.3694 11.5439 16.0567 10.2281 16.243C9.14451 16.3944 8.13833 16.1731 7.25377 15.4743C6.43555 14.822 5.97116 13.9601 5.84953 12.8885C5.70579 11.6189 6.05962 10.4774 6.78938 9.47575C7.57442 8.39252 8.61378 7.70531 9.88533 7.46071C10.9247 7.26271 11.9198 7.39083 12.8154 8.03145C13.4015 8.43911 13.8216 8.9982 14.098 9.67376C14.1644 9.77859 14.1202 9.83683 13.9875 9.87177C13.5999 9.97545 13.2808 10.0647 12.9559 10.1556ZM20.2712 11.4823C20.2734 11.5214 20.2757 11.5627 20.2789 11.6069C20.2236 12.6086 19.7482 13.354 18.8747 13.8316C18.2886 14.1461 17.6805 14.181 17.0724 13.9015C16.2763 13.5287 15.8561 12.6086 16.0551 11.7001C16.2984 10.6052 16.9618 9.91797 17.9901 9.67337C19.0405 9.41712 20.0467 10.0694 20.2457 11.2225C20.2614 11.305 20.2659 11.3874 20.2712 11.4823Z" fill="#93F5D4"/>
<path d="M2.18067 10.0232C2.15855 10.0582 2.16961 10.0815 2.21384 10.0815L5.50679 10.0931C5.53996 10.0931 5.59524 10.0582 5.61736 10.0232L5.80533 9.7204C5.82744 9.68546 5.81638 9.65051 5.77215 9.65051H2.53449C2.49026 9.65051 2.43498 9.67381 2.41286 9.70875L2.18067 10.0232Z" fill="#93F5D4"/>
<path d="M0.511057 11.0948C0.488943 11.1297 0.5 11.153 0.544228 11.153L5.0645 11.1414C5.10873 11.1414 5.15296 11.1181 5.16402 11.0715L5.25247 10.7919C5.26353 10.757 5.24141 10.722 5.19719 10.722H0.86488C0.820652 10.722 0.765368 10.7453 0.743254 10.7803L0.511057 11.0948Z" fill="#93F5D4"/>
<path d="M3.18684 12.1547C3.16472 12.1897 3.17578 12.2246 3.22001 12.2246L4.92075 12.2363C4.95392 12.2363 4.99815 12.2013 4.99815 12.1547L5.02027 11.8752C5.02027 11.8286 4.99815 11.7937 4.95392 11.7937H3.45221C3.40798 11.7937 3.36375 11.8286 3.34164 11.8635L3.18684 12.1547Z" fill="#93F5D4"/>
</g>
<defs>
<clipPath id="clip0_40_576">
<rect width="22" height="22" fill="white" transform="translate(0.5 0.5)"/>
</clipPath>
</defs>
</svg>
