<svg width="80" height="80" viewBox="0 0 80 80" fill="none" xmlns="http://www.w3.org/2000/svg">
<path fill-rule="evenodd" clip-rule="evenodd" d="M30.442 0C32.4431 0 33.8501 0.156338 35.2883 0.625351C36.414 0.969294 37.9148 1.59465 39.9784 2.81408L41.3229 2.03239C42.042 1.59465 43.5428 0.969294 44.6684 0.625351C46.0442 0.187605 47.5762 0 49.3584 0C50.8593 0 52.7665 0.218873 53.7358 0.500281C54.6738 0.781689 56.2997 1.43831 57.3002 1.96986C58.3633 2.56394 59.9579 3.84591 61.1148 5.06534C62.2091 6.25351 63.4285 7.81689 63.835 8.59858C64.2102 9.38027 64.7418 10.0056 64.9919 10.0056C65.242 10.0056 66.3051 10.4121 67.3369 10.9124C68.3687 11.4127 69.8383 12.382 70.6199 13.0698C71.4016 13.7265 72.4647 14.9772 73.0275 15.8214C73.5903 16.6656 74.3094 18.1977 74.6846 19.2295C75.1224 20.5741 75.31 21.8248 75.2787 23.607C75.2787 24.9828 75.1536 26.4524 75.0286 26.8901C74.841 27.5154 75.0598 27.9845 76.1542 29.2977C76.9046 30.2045 77.8426 31.6115 78.249 32.4245C78.6555 33.2687 79.2183 34.707 79.4997 35.645C79.7811 36.6456 80 38.4904 80 40.0225C80 41.5546 79.7811 43.3994 79.4997 44.3999C79.2183 45.338 78.7181 46.6825 78.3741 47.3703C78.0302 48.0582 77.186 49.3089 76.5294 50.1844C75.3725 51.6853 75.3412 51.8416 75.31 54.2492C75.31 55.8439 75.0911 57.501 74.7159 58.783C74.372 59.9086 73.5277 61.6596 72.8711 62.6915C72.2145 63.7233 70.9013 65.2867 69.9633 66.1622C69.0253 67.0376 67.3994 68.1945 66.3364 68.7261C65.242 69.2889 63.4911 69.9455 62.428 70.1957C61.3337 70.4458 60.4269 70.6959 60.4269 70.7585C60.3957 70.7897 60.0205 71.5089 59.5827 72.3844C59.145 73.2286 58.2382 74.5731 57.5816 75.3548C56.8938 76.1365 55.6431 77.1996 54.7989 77.7624C53.9547 78.3252 52.4226 79.0757 51.3908 79.4196C49.8274 79.9824 48.9832 80.0762 46.3881 79.9511C44.0118 79.8573 42.8862 79.6697 40.1347 78.419L38.2587 79.1382C36.6641 79.7635 35.8511 79.8886 32.787 79.8886C29.3164 79.8886 29.0975 79.8573 27.0026 78.8255C25.6581 78.1689 24.1261 77.0745 23.063 76.0114C22.0937 75.0421 20.9368 73.4788 20.4366 72.5407C19.9676 71.6027 19.5611 70.7897 19.5298 70.7585C19.5298 70.6959 18.5918 70.4458 17.4662 70.1644C16.3406 69.9143 14.5271 69.1951 13.4015 68.6323C12.1821 68.0069 10.5875 66.7562 9.46189 65.5993C8.39882 64.505 7.11688 62.754 6.55407 61.6596C6.02254 60.5965 5.36593 58.783 5.08453 57.5948C4.83439 56.4379 4.64679 54.6557 4.67806 53.6239C4.77186 51.8103 4.74059 51.6853 3.30232 49.8718C2.48938 48.8399 1.45757 47.0889 0.988567 45.9633C0.394496 44.4625 0.144361 43.2118 0.0192931 41.1168C-0.0432407 39.5535 0.05056 37.5523 0.238161 36.583C0.45703 35.645 1.01983 34.0191 1.5201 32.9873C1.98911 31.9554 3.05218 30.3608 5.27213 27.8281L4.92819 26.1709C4.70933 25.2955 4.64679 23.6383 4.74059 22.5126C4.83439 21.387 5.2096 19.6986 5.55353 18.7605C5.89747 17.8225 6.77294 16.1966 7.52335 15.1648C8.33629 14.0704 9.6495 12.7572 10.7438 12.038C11.7756 11.3189 13.2765 10.5684 14.0894 10.3183C15.3401 9.91182 15.6527 9.66168 16.1217 8.59858C16.4344 7.91069 17.6226 6.37858 18.7482 5.15915C19.905 3.97098 21.5934 2.56394 22.5002 2.06366C23.4382 1.53211 24.9703 0.875492 25.9083 0.594084C26.9714 0.25014 28.691 0.0312676 30.442 0V0ZM25.5956 6.09717C24.7514 6.53492 23.4069 7.50421 22.6253 8.2859C21.8436 9.06759 20.718 10.6622 20.1239 11.8817L19.0296 14.0704C15.7465 15.0084 14.2145 15.7276 13.4953 16.2591C12.7449 16.7594 11.7131 17.8538 11.2128 18.6667C10.6813 19.511 10.1185 20.6679 9.96216 21.2619C9.77456 21.856 9.64949 22.9504 9.64949 23.6695C9.64949 24.42 9.9309 25.827 10.2748 26.7963C10.6188 27.7969 10.8064 28.8912 10.7126 29.2352C10.5875 29.5791 9.71203 30.6422 8.71149 31.5802C7.61715 32.6121 6.58534 33.9878 6.08507 35.0197C5.64733 35.9577 5.14706 37.4273 5.022 38.3028C4.86566 39.147 4.86566 40.6478 4.99073 41.5859C5.14706 42.5239 5.61607 43.9935 6.0538 44.8689C6.46027 45.7132 7.52335 47.1827 8.39882 48.0582L9.96216 49.7154C9.64949 54.9371 9.71203 55.8751 10.181 57.376C10.525 58.4078 11.2128 59.9086 11.7756 60.7216C12.3384 61.5658 13.4328 62.7227 14.277 63.3168C15.0899 63.9109 16.6533 64.6926 17.7789 65.0365C18.9045 65.3805 20.374 65.6619 21.0619 65.6619C21.8748 65.6619 22.5627 65.8495 23.0317 66.2872C23.4069 66.6312 23.8134 67.2878 23.9072 67.7568C24.0323 68.2571 24.4387 69.2576 24.8452 70.0393C25.2204 70.821 26.0959 71.9779 26.7525 72.6033C27.4091 73.2286 28.6598 74.0728 29.504 74.4481C30.5358 74.8858 31.6927 75.1047 32.9433 75.1047C33.9751 75.1047 35.4134 74.8545 36.1638 74.6044L37.477 74.1041V56.5943C32.6619 56.5943 32.4431 56.6568 32.2555 57.2822C32.1304 57.6886 31.6927 58.4078 31.2549 58.9081C30.7859 59.4084 29.8792 60.0962 29.1913 60.4402C28.5034 60.7529 27.2528 61.1281 26.3773 61.2219C25.1891 61.3157 24.4387 61.1906 23.2506 60.6903C22.4064 60.3151 21.3433 59.6898 20.9368 59.3146C20.5304 58.9393 19.8738 57.9075 19.4673 57.0633C19.0296 56.1565 18.7169 54.9058 18.7169 54.0929C18.7169 53.2799 19.0296 52.0292 19.4673 51.1225C19.8738 50.247 20.5304 49.2464 20.9368 48.8712C21.3433 48.496 22.4064 47.8706 23.2506 47.4954C24.4387 46.9951 25.1891 46.8701 26.3773 46.9639C27.2528 47.0577 28.5034 47.4329 29.1913 47.7456C29.8792 48.0895 30.7859 48.7774 31.2549 49.2777C31.6927 49.778 32.1304 50.4971 32.2555 50.8723C32.4431 51.5289 32.6619 51.5915 34.9757 51.5915H37.477V42.5239C23.0943 42.5239 23.0943 42.5239 22.8754 43.2118C22.7503 43.6182 22.3126 44.3374 21.8748 44.8377C21.4058 45.338 20.4991 46.0258 19.8112 46.3698C19.1234 46.6825 17.8727 47.0577 16.9972 47.1515C15.8091 47.2453 15.0587 47.1202 13.8705 46.6199C13.0263 46.2447 11.9632 45.6194 11.5568 45.2442C11.1503 44.8689 10.4937 43.8371 10.0872 42.9929C9.64949 42.0861 9.33683 40.8354 9.33683 40.0225C9.33683 39.2095 9.64949 37.9588 10.0872 37.0521C10.4937 36.1766 11.1503 35.176 11.5568 34.8008C11.9632 34.4256 13.0263 33.8002 13.8705 33.425C15.0587 32.9247 15.8091 32.7997 16.9972 32.8935C17.8727 32.9873 19.1234 33.3625 19.8112 33.6752C20.4991 34.0191 21.4058 34.707 21.8748 35.2073C22.3126 35.7075 22.7503 36.4267 22.8754 36.8019C23.0943 37.5211 23.0943 37.5211 30.2856 37.5211H37.477V28.4535C32.6619 28.4535 32.4431 28.516 32.2555 29.1414C32.1304 29.5478 31.6927 30.267 31.2549 30.7673C30.7859 31.2676 29.8792 31.9554 29.1913 32.2994C28.5034 32.6121 27.2528 32.9873 26.3773 33.0811C25.1891 33.1749 24.4387 33.0498 23.2506 32.5495C22.4064 32.1743 21.3433 31.549 20.9368 31.1738C20.5304 30.7985 19.8738 29.7667 19.4673 28.9225C19.0296 28.0157 18.7169 26.765 18.7169 25.9521C18.7169 25.1391 19.0296 23.8884 19.4673 22.9817C19.8738 22.1062 20.5304 21.1056 20.9368 20.7304C21.3433 20.3552 22.4064 19.7298 23.2506 19.3546C24.4387 18.8543 25.1891 18.7293 26.3773 18.8231C27.2528 18.9169 28.5034 19.2921 29.1913 19.6048C29.8792 19.9487 30.7859 20.6366 31.2549 21.1369C31.6927 21.6371 32.1304 22.3563 32.2555 22.7315C32.4431 23.3881 32.6619 23.4507 34.9757 23.4507H37.477L37.3207 7.06647C35.3821 5.94084 34.3191 5.50309 33.725 5.34675C33.1309 5.19041 32.1304 5.00281 31.5363 4.94027C30.9422 4.84647 29.6916 4.90901 28.8161 5.06534C27.9094 5.19041 26.4711 5.65943 25.5956 6.09717V6.09717ZM44.1994 6.19098L42.6361 7.0352C42.4797 23.8571 42.511 24.3887 43.0425 24.2011C43.3239 24.1073 44.1994 23.8884 44.9811 23.7008C45.7628 23.5132 47.1698 23.4507 48.1078 23.5445C49.0458 23.6695 50.3903 24.0448 51.0781 24.3574C51.766 24.7014 52.9229 25.5769 53.6733 26.3273C54.4237 27.0777 55.2992 28.2346 55.6431 28.9225C55.9558 29.6104 56.331 30.9549 56.4248 31.8929C56.5811 33.3312 56.5186 33.7377 55.9558 34.4568C55.4555 35.1447 55.0177 35.3323 54.1423 35.3323C53.3919 35.3636 52.7353 35.1447 52.3913 34.8008C52.0787 34.4881 51.7035 33.5188 51.5471 32.6746C51.3595 31.7991 50.9843 30.7673 50.6717 30.3295C50.359 29.8918 49.6086 29.2977 49.0145 28.985C48.2641 28.5785 47.545 28.4535 46.5444 28.5785C45.7628 28.6723 44.7935 28.985 44.3557 29.329C43.918 29.6416 43.3239 30.3921 43.0425 30.9861C42.5423 31.9242 42.4797 33.0498 42.4797 40.0225C42.4797 46.9951 42.5423 48.1208 43.0425 49.0588C43.3239 49.6529 43.918 50.4033 44.3557 50.716C44.7935 51.0599 45.7628 51.3726 46.5444 51.4664C47.545 51.5915 48.2641 51.4664 49.0145 51.0599C49.6086 50.7472 50.359 50.1532 50.6717 49.7154C50.9843 49.2777 51.3595 48.2146 51.5471 47.3703C51.7035 46.4949 52.0787 45.5568 52.3913 45.2442C52.7353 44.9002 53.3919 44.6813 54.1423 44.7126C55.0177 44.7126 55.4555 44.9002 55.9558 45.5568C56.5186 46.3073 56.5811 46.7137 56.4248 48.152C56.331 49.0901 55.9558 50.4346 55.6431 51.1225C55.2992 51.8103 54.4237 52.9672 53.6733 53.7177C52.9229 54.4681 51.766 55.3436 51.0781 55.6875C50.3903 56.0002 49.0458 56.3754 48.1078 56.5005C47.1698 56.5943 45.7628 56.5317 44.9811 56.3441C44.1994 56.1565 43.3239 55.9377 43.0425 55.8439C42.511 55.6563 42.4797 56.2503 42.4797 64.8802V74.1041C44.5433 74.8545 45.9816 75.1047 47.0134 75.1047C48.2954 75.1047 49.421 74.8858 50.5779 74.3543C51.5784 73.9165 52.7978 73.041 53.6107 72.1343C54.3611 71.3213 54.9865 70.5396 54.9865 70.352C54.9865 70.1644 54.7363 70.0393 54.4549 70.0393C54.1423 70.0393 52.7665 69.5078 51.3908 68.8199C49.7024 68.0069 48.4517 67.1002 47.5137 66.0683C46.3256 64.7864 46.1692 64.4424 46.3568 63.6295C46.4506 63.0979 46.8571 62.4413 47.2636 62.1286C47.6388 61.816 48.2954 61.5658 48.7331 61.5658C49.1708 61.5971 50.2965 62.1599 51.2345 62.8791C52.1725 63.5982 53.5795 64.4424 54.3611 64.7864C55.1428 65.1303 56.6749 65.4743 57.8005 65.5681C59.2388 65.6931 60.3957 65.5993 61.7089 65.2241C62.7407 64.9114 64.2727 64.2236 65.117 63.692C65.9924 63.1292 67.1806 62.0661 67.8059 61.2844C68.4312 60.5027 69.2442 59.0331 69.6507 58.0013C70.1197 56.7506 70.3385 55.4374 70.3385 54.0929C70.3385 52.8109 70.1197 51.4039 69.7132 50.3408C69.3693 49.4027 68.4312 47.7768 67.6496 46.745C66.8679 45.6819 66.2113 44.525 66.2113 44.0873C66.2113 43.6495 66.4614 42.9929 66.7741 42.6177C67.0868 42.2112 67.7746 41.8047 68.3374 41.6797C69.2442 41.4608 69.4631 41.5546 70.8388 42.9929C71.683 43.8371 72.5897 44.9002 72.8399 45.338L73.3401 46.1196C74.372 44.056 74.8097 42.7115 74.9348 41.8047C75.0911 40.9292 75.1224 39.3971 74.9973 38.4591C74.8722 37.5211 74.4345 36.0202 74.028 35.176C73.6215 34.3005 72.4021 32.7059 71.3078 31.5802C69.9633 30.1732 69.338 29.2977 69.338 28.7662C69.338 28.3284 69.5881 27.4216 69.8695 26.7338C70.1509 26.0459 70.3698 24.6388 70.3698 23.607C70.3698 22.4501 70.1509 21.1994 69.7757 20.3239C69.4631 19.5422 68.5563 18.229 67.7746 17.416C67.0242 16.6031 66.3051 15.9152 66.18 15.9465C66.0237 15.9465 65.9299 16.4467 65.9299 17.0408C65.9299 17.6349 65.7736 18.8856 65.586 19.7611C65.3984 20.6679 64.9606 22.0436 64.6167 22.8253L63.9913 24.2324C65.242 27.9845 65.711 30.1107 65.8048 31.3301C65.9924 33.3312 65.9299 33.7064 65.3358 34.4568C64.8043 35.1447 64.4291 35.3323 63.4285 35.3323C62.428 35.3323 62.0528 35.176 61.5525 34.4568C61.1773 33.9878 60.8959 33.1436 60.9272 32.5183C60.9272 31.9242 60.7083 30.5797 60.4269 29.5478C60.1768 28.516 59.5827 26.9839 59.1137 26.1397C58.6447 25.3267 57.4878 23.8884 56.5498 22.9817C55.6118 22.1062 54.0797 20.9805 53.2043 20.5428C52.2975 20.0738 51.4221 19.4172 51.2345 19.0732C51.0469 18.7293 50.9218 18.1352 50.9218 17.7287C50.9218 17.3535 51.1407 16.7281 51.3908 16.3217C51.6409 15.9465 52.3288 15.54 52.8916 15.4462C53.6107 15.3211 54.3611 15.5087 55.6118 16.1341C56.5498 16.6343 58.0819 17.6349 58.9886 18.3541L60.6145 19.6986C60.9272 17.3848 60.9272 16.009 60.8021 15.1648C60.7083 14.2893 60.1768 12.7259 59.6765 11.6315C59.145 10.5684 58.1132 9.06759 57.3315 8.2859C56.5498 7.50421 55.2679 6.53492 54.4549 6.12844C53.6107 5.72196 52.3913 5.28422 51.7035 5.15915C51.0156 5.06534 50.1714 4.90901 49.8274 4.87774C49.4835 4.8152 48.4204 4.90901 47.4824 5.06534C46.5444 5.22168 45.0749 5.72196 44.1994 6.19098V6.19098ZM23.6571 25.9833C23.6883 26.3898 24.0323 27.0464 24.4075 27.4216C24.8139 27.8281 25.4705 28.1408 25.9083 28.1408C26.346 28.1408 27.0026 27.8281 27.3778 27.4529C27.7843 27.0464 28.097 26.3898 28.097 25.9521C28.097 25.5143 27.7843 24.8577 27.4091 24.4825C27.0026 24.076 26.3147 23.7633 25.877 23.7633C25.4393 23.7633 24.7514 24.076 24.3449 24.4825C23.9072 24.9202 23.6258 25.5456 23.6571 25.9833V25.9833ZM14.277 40.0537C14.3083 40.4602 14.6522 41.1168 15.0274 41.492C15.4339 41.8985 16.0905 42.2112 16.5282 42.2112C16.9659 42.2112 17.6226 41.8985 17.9978 41.5233C18.4042 41.1168 18.7169 40.4602 18.7169 40.0225C18.7169 39.5847 18.4042 38.9281 18.029 38.5529C17.6226 38.1464 16.9347 37.8337 16.4969 37.8337C16.0592 37.8337 15.3713 38.1464 14.9649 38.5529C14.5271 38.9906 14.2457 39.616 14.277 40.0537V40.0537ZM23.6571 54.1241C23.6883 54.5306 24.0323 55.1872 24.4075 55.5624C24.8139 55.9689 25.4705 56.2816 25.9083 56.2816C26.346 56.2816 27.0026 55.9689 27.3778 55.5937C27.7843 55.1872 28.097 54.5306 28.097 54.0929C28.097 53.6551 27.7843 52.9985 27.4091 52.6233C27.0026 52.2168 26.3147 51.9041 25.877 51.9041C25.4393 51.9041 24.7514 52.2168 24.3449 52.6233C23.9072 53.061 23.6258 53.6864 23.6571 54.1241V54.1241Z" fill="#0085FF"/>
</svg>
