<svg width="23" height="23" viewBox="0 0 23 23" fill="none" xmlns="http://www.w3.org/2000/svg">
<g clip-path="url(#clip0_40_526)">
<path fill-rule="evenodd" clip-rule="evenodd" d="M11.5195 22.2023C11.224 22.2023 10.9481 22.1235 10.692 21.9856L8.07181 20.4292C7.67779 20.2125 7.8748 20.1337 7.993 20.0943C8.52493 19.917 8.62343 19.8776 9.17506 19.5624C9.23416 19.523 9.31297 19.5427 9.37207 19.5821L11.3816 20.7839C11.4604 20.8233 11.5589 20.8233 11.618 20.7839L19.4787 16.2329C19.5575 16.1935 19.5969 16.1147 19.5969 16.0162V6.93407C19.5969 6.83556 19.5575 6.75676 19.4787 6.71736L11.618 2.18613C11.5392 2.14673 11.4407 2.14673 11.3816 2.18613L3.52088 6.71736C3.44208 6.75676 3.40268 6.85526 3.40268 6.93407V16.0162C3.40268 16.095 3.44208 16.1935 3.52088 16.2329L5.66829 17.4741C6.83065 18.0651 7.55958 17.3756 7.55958 16.6861V7.72211C7.55958 7.6039 7.65809 7.4857 7.79599 7.4857H8.80074C8.91895 7.4857 9.03715 7.5842 9.03715 7.72211V16.6861C9.03715 18.2424 8.19001 19.1487 6.71244 19.1487C6.25932 19.1487 5.9047 19.1487 4.89995 18.6561L2.83135 17.4741C2.31912 17.1786 2.00391 16.6269 2.00391 16.0359V6.95377C2.00391 6.36274 2.31912 5.81111 2.83135 5.5156L10.692 0.964673C11.1846 0.688859 11.8544 0.688859 12.3469 0.964673L20.2076 5.5156C20.7198 5.81111 21.035 6.36274 21.035 6.95377V16.0359C21.035 16.6269 20.7198 17.1786 20.2076 17.4741L12.3469 22.025C12.0908 22.1432 11.7953 22.2023 11.5195 22.2023ZM13.9427 15.9571C10.495 15.9571 9.78579 14.381 9.78579 13.0414C9.78579 12.9232 9.8843 12.805 10.0222 12.805H11.0467C11.1649 12.805 11.2634 12.8838 11.2634 13.002C11.421 14.0461 11.8741 14.5583 13.9624 14.5583C15.6173 14.5583 16.3265 14.184 16.3265 13.2975C16.3265 12.7853 16.1295 12.4109 13.5487 12.1548C11.4013 11.9381 10.0616 11.4653 10.0616 9.75131C10.0616 8.15553 11.4013 7.20988 13.6472 7.20988C16.1689 7.20988 17.4101 8.07672 17.5677 9.96802C17.5677 10.0271 17.548 10.0862 17.5086 10.1453C17.4692 10.1847 17.4101 10.2241 17.351 10.2241H16.3265C16.228 10.2241 16.1295 10.1453 16.1098 10.0468C15.8734 8.96327 15.2627 8.60865 13.6472 8.60865C11.8347 8.60865 11.618 9.23908 11.618 9.71191C11.618 10.2832 11.8741 10.4605 14.317 10.7758C16.7402 11.091 17.8829 11.5441 17.8829 13.2384C17.8632 14.9721 16.4447 15.9571 13.9427 15.9571Z" fill="#93F5D4"/>
</g>
<defs>
<clipPath id="clip0_40_526">
<rect width="22" height="22" fill="white" transform="translate(0.5 0.5)"/>
</clipPath>
</defs>
</svg>
