<svg width="23" height="23" viewBox="0 0 23 23" fill="none" xmlns="http://www.w3.org/2000/svg">
<g clip-path="url(#clip0_40_434)">
<path d="M18.5884 8.04734C18.3602 7.96879 18.1237 7.89446 17.8802 7.82417C17.9202 7.66084 17.957 7.49962 17.9896 7.34114C18.5257 4.73886 18.1752 2.64244 16.9783 1.95221C15.8306 1.29038 13.9536 1.98045 12.058 3.63017C11.8757 3.7888 11.6929 3.95676 11.5102 4.13278C11.3884 4.01632 11.2669 3.90378 11.1456 3.79613C9.15895 2.03214 7.16761 1.28877 5.97186 1.981C4.82527 2.64475 4.48571 4.61558 4.96828 7.08178C5.01488 7.31999 5.06935 7.56325 5.13095 7.81058C4.84912 7.89059 4.57703 7.97588 4.3167 8.06661C1.98752 8.87867 0.5 10.1514 0.5 11.4715C0.5 12.8349 2.09685 14.2024 4.52288 15.0316C4.71433 15.0971 4.91299 15.1589 5.11771 15.2177C5.05126 15.4852 4.99346 15.7473 4.94494 16.003C4.48481 18.4264 4.84414 20.3507 5.98768 21.0102C7.16886 21.6914 9.1512 20.9912 11.0815 19.3039C11.2341 19.1705 11.3872 19.0291 11.5406 18.8808C11.7394 19.0723 11.9379 19.2535 12.1353 19.4234C14.005 21.0324 15.8517 21.6821 16.9942 21.0207C18.1742 20.3376 18.5577 18.2705 18.0598 15.7555C18.0218 15.5634 17.9775 15.3672 17.9278 15.1674C18.067 15.1263 18.2037 15.0838 18.337 15.0396C20.8591 14.204 22.5 12.8531 22.5 11.4715C22.5 10.1466 20.9645 8.86531 18.5884 8.04734ZM18.0414 14.1475C17.9211 14.1874 17.7977 14.2258 17.6719 14.2632C17.3935 13.3817 17.0177 12.4444 16.5578 11.4761C16.9967 10.5307 17.3579 9.60543 17.6285 8.7297C17.8536 8.79482 18.072 8.86351 18.2825 8.936C20.3183 9.63684 21.5602 10.673 21.5602 11.4715C21.5602 12.3219 20.219 13.426 18.0414 14.1475ZM17.1378 15.938C17.358 17.0501 17.3894 18.0555 17.2436 18.8416C17.1126 19.5478 16.8491 20.0187 16.5232 20.2073C15.8299 20.6086 14.3473 20.087 12.7483 18.711C12.5649 18.5533 12.3803 18.3848 12.1951 18.2066C12.815 17.5286 13.4345 16.7404 14.0392 15.8651C15.1027 15.7707 16.1075 15.6164 17.0187 15.4058C17.0636 15.5868 17.1035 15.7644 17.1378 15.938ZM8.0003 20.138C7.32291 20.3772 6.78341 20.3841 6.45729 20.196C5.76334 19.7958 5.47485 18.2508 5.86836 16.1783C5.91344 15.9409 5.96709 15.6971 6.02892 15.4479C6.93014 15.6472 7.92758 15.7906 8.99366 15.877C9.6024 16.7336 10.2398 17.5209 10.8822 18.2102C10.7419 18.3457 10.6021 18.4747 10.4631 18.5963C9.60949 19.3424 8.75412 19.8717 8.0003 20.138ZM4.82683 14.1423C3.75409 13.7757 2.86818 13.2991 2.26093 12.7791C1.71528 12.3118 1.43979 11.8479 1.43979 11.4715C1.43979 10.6704 2.63413 9.64858 4.62606 8.95409C4.86776 8.86981 5.12077 8.7904 5.38333 8.7158C5.65863 9.6113 6.01976 10.5476 6.45556 11.4943C6.01412 12.4552 5.64786 13.4063 5.36986 14.3123C5.18268 14.2585 5.00133 14.2019 4.82683 14.1423ZM5.89061 6.9013C5.47716 4.78832 5.75175 3.19436 6.44272 2.79438C7.17873 2.36829 8.80624 2.97581 10.5216 4.49893C10.6312 4.59628 10.7413 4.69817 10.8517 4.80359C10.2125 5.48994 9.5809 6.27133 8.97757 7.12282C7.94289 7.21872 6.95246 7.37278 6.04184 7.57907C5.98459 7.34877 5.93388 7.12251 5.89061 6.9013ZM15.3804 9.24457C15.1627 8.86856 14.9392 8.50144 14.7114 8.14434C15.4133 8.23308 16.0859 8.35087 16.7174 8.49502C16.5278 9.1027 16.2915 9.73806 16.0133 10.3894C15.8138 10.0105 15.6027 9.62853 15.3804 9.24457ZM11.5105 5.47526C11.944 5.9449 12.3781 6.46925 12.8051 7.03816C12.3748 7.01784 11.9392 7.00726 11.5 7.00726C11.0649 7.00726 10.6325 7.0176 10.2049 7.03757C10.6323 6.47395 11.0702 5.9503 11.5105 5.47526ZM7.61579 9.25107C7.39833 9.62814 7.19118 10.0081 6.99475 10.3887C6.72107 9.73963 6.48693 9.10137 6.29568 8.48507C6.92337 8.34461 7.59272 8.22975 8.2902 8.1427C8.05915 8.50308 7.83383 8.87291 7.61579 9.251V9.25107ZM8.31029 14.8673C7.58967 14.7869 6.91025 14.6779 6.28271 14.5414C6.47702 13.9141 6.71633 13.2622 6.99581 12.5991C7.19275 12.9795 7.40072 13.3596 7.61951 13.7374H7.61955C7.84241 14.1224 8.07329 14.4995 8.31029 14.8673ZM11.5365 17.5339C11.0911 17.0533 10.6467 16.5217 10.2128 15.9499C10.6341 15.9664 11.0635 15.9748 11.5 15.9748C11.9484 15.9748 12.3917 15.9647 12.828 15.9453C12.3996 16.5275 11.9671 17.0599 11.5365 17.5339ZM16.0223 12.5653C16.3163 13.2355 16.5642 13.884 16.761 14.5006C16.1232 14.6461 15.4345 14.7634 14.7088 14.8504C14.9372 14.4885 15.1626 14.1151 15.3842 13.731C15.6083 13.3424 15.8211 12.9532 16.0223 12.5653ZM14.5701 13.2615C14.2262 13.8577 13.8731 14.427 13.5147 14.9643C12.8619 15.011 12.1874 15.035 11.5 15.035C10.8154 15.035 10.1494 15.0137 9.50814 14.9721C9.13526 14.4278 8.77452 13.8568 8.43282 13.2666H8.43289C8.09209 12.6779 7.77842 12.0843 7.4942 11.494C7.77834 10.9024 8.09119 10.3081 8.43004 9.72048L8.42996 9.7206C8.76971 9.13144 9.12727 8.56331 9.49671 8.02236C10.151 7.9729 10.8219 7.94709 11.5 7.94709H11.5C12.1811 7.94709 12.8529 7.9731 13.507 8.02299C13.8708 8.55998 14.2259 9.12627 14.567 9.71551C14.9119 10.3114 15.2288 10.9017 15.5154 11.4807C15.2297 12.0696 14.9135 12.6659 14.5701 13.2615ZM16.5088 2.76642C17.2456 3.19127 17.532 4.90466 17.0692 7.15145C17.0396 7.29481 17.0064 7.44084 16.9703 7.58882C16.0576 7.37822 15.0664 7.2215 14.0287 7.12415C13.4242 6.26331 12.7978 5.4807 12.169 4.80316C12.3381 4.64053 12.5069 4.48546 12.675 4.33912C14.2992 2.92565 15.8172 2.36758 16.5088 2.76642ZM11.5 9.50694C12.585 9.50694 13.4645 10.3865 13.4645 11.4715C13.4645 12.5564 12.585 13.436 11.5 13.436C10.415 13.436 9.53548 12.5564 9.53548 11.4715C9.53548 10.3865 10.415 9.50694 11.5 9.50694Z" fill="#FDFA85"/>
</g>
<defs>
<clipPath id="clip0_40_434">
<rect width="22" height="22" fill="white" transform="translate(0.5 0.5)"/>
</clipPath>
</defs>
</svg>
