<svg width="100" height="100" viewBox="0 0 100 100" fill="none" xmlns="http://www.w3.org/2000/svg">
<path d="M91.0588 5.74691C89.6221 9.23965 87.7643 12.336 85.7083 15.1104C76.642 5.87077 63.9592 0 49.9635 0C22.4675 0 0 22.3436 0 49.9387C0 64.3555 6.16802 77.3356 15.9526 86.501L17.8105 88.1606C26.4556 95.4681 37.7017 99.9022 49.9387 99.9022C76.1961 99.9022 97.8214 79.4164 99.6792 53.5553C101.165 40.9963 97.3507 24.9198 91.0588 5.74691ZM23.1858 86.9221C21.7491 88.7799 19.0738 88.9781 17.216 87.5413C15.3581 86.1046 15.16 83.4293 16.5967 81.5715C18.0334 79.7136 20.7087 79.5155 22.5665 80.9522C24.3253 82.3889 24.6225 85.0642 23.1858 86.9221ZM90.7616 71.985C78.4999 88.3588 52.1433 82.81 35.3485 83.6275C35.3485 83.6275 32.3512 83.8257 29.3786 84.2468C29.3786 84.2468 30.5181 83.7266 31.9548 83.2064C43.7954 79.0944 49.369 78.2521 56.5774 74.5612C70.0777 67.6501 83.5532 52.5149 86.2532 36.8595C81.1008 51.8956 65.4454 64.8757 51.2268 70.1272C41.4422 73.7438 23.8299 77.2365 23.8299 77.2365L23.1115 76.8154C11.1718 70.9447 10.7507 44.9845 32.5989 36.6366C42.1853 32.9209 51.2516 34.9769 61.6555 32.5246C72.6786 29.9484 85.4606 21.6996 90.5882 10.8993C96.3103 28.3135 103.321 55.2893 90.7616 71.985Z" fill="#93F5D4"/>
</svg>
