<svg width="573" height="512" viewBox="0 0 573 512" fill="none" xmlns="http://www.w3.org/2000/svg">
<path fill-rule="evenodd" clip-rule="evenodd" d="M523.435 360.341C523.435 360.341 595.057 441.245 566.11 512C566.11 512 536.566 462.442 487.027 462.442C439.28 462.442 411.228 512 315.135 512C101.166 512 0 333.173 0 333.173C192.782 460.054 324.386 370.192 324.386 370.192C237.545 319.739 52.821 78.5166 52.821 78.5166C213.671 215.548 283.204 251.671 283.204 251.671C241.723 217.339 125.338 49.558 125.338 49.558C220.752 140.14 403.469 275.555 403.469 275.555C455.991 129.866 353.035 0 353.035 0C604.905 171.363 523.435 360.341 523.435 360.341Z" fill="#E579C8"/>
</svg>
